<svg width="118" height="44" viewBox="0 0 118 44" fill="none" xmlns="http://www.w3.org/2000/svg">
<path d="M5.41493 33.0575C7.78846 34.8956 10.7676 36 13.9999 36C17.5371 36 20.7617 34.6862 23.2227 32.5296C23.2525 32.5033 23.2378 32.4858 23.2084 32.5033C22.1041 33.2411 18.9566 34.8518 14 34.8518C9.69257 34.8518 6.97043 33.8903 5.43318 33.0319C5.40377 33.0174 5.39287 33.0394 5.41493 33.0575ZM14.9502 33.7732C18.3954 33.7732 22.1812 32.8336 24.4455 30.9738C25.0651 30.4671 25.6553 29.7927 26.1839 28.8863C26.4881 28.3648 26.7858 27.7452 27.0282 27.1362C27.0389 27.1065 27.0206 27.0921 26.9983 27.1254C24.8927 30.2253 18.7954 32.1588 12.4996 32.1588C8.04944 32.1588 3.2612 30.7352 1.38657 28.0168C1.36812 27.9917 1.34966 28.0024 1.3609 28.0313C3.10725 31.7447 8.40528 33.7732 14.9502 33.7732ZM11.186 27.6129C4.02074 27.6129 0.64215 24.2744 0.0292784 21.9961C0.0217205 21.9631 0 21.9703 0 22C0 22.767 0.0767366 23.7568 0.208762 24.4138C0.271744 24.7336 0.531913 25.2355 0.913349 25.6355C2.6484 27.4448 6.97411 29.9799 14.4656 29.9799C24.6723 29.9799 27.0061 26.5786 27.4827 25.46C27.8234 24.6601 28 23.2144 28 22C28 21.7062 27.9926 21.4714 27.9815 21.241C27.9815 21.2036 27.9599 21.2005 27.9524 21.237C27.4423 23.974 18.7218 27.6129 11.186 27.6129ZM1.34966 15.9939C0.939087 16.8091 0.483978 18.1843 0.348685 18.8961C0.289379 19.201 0.31464 19.3475 0.421541 19.5751C1.28035 21.3979 5.62438 24.3146 15.7573 24.3146C21.9391 24.3146 26.7413 22.7952 27.5193 20.0227C27.6626 19.5123 27.6702 18.9734 27.4862 18.2473C27.2806 17.4358 26.8955 16.4896 26.5695 15.8252C26.5588 15.8036 26.5398 15.8068 26.5436 15.8324C26.6647 19.4689 16.5278 21.8126 11.4131 21.8126C5.87304 21.8126 1.25107 19.6044 1.25107 16.8161C1.25107 16.5481 1.3065 16.2802 1.37568 16.0013C1.38262 15.9758 1.36083 15.9716 1.34966 15.9939ZM23.2454 11.5291C23.3042 11.6213 23.3336 11.7197 23.3336 11.8522C23.3336 13.4077 18.5747 16.1595 10.9993 16.1595C5.43318 16.1595 4.39108 14.0938 4.39108 12.7801C4.39108 12.3105 4.5711 11.83 4.96759 11.342C4.98924 11.313 4.97086 11.3018 4.94587 11.3234C4.22276 11.9365 3.55834 12.6263 2.9755 13.371C2.69702 13.7231 2.52414 14.0351 2.52414 14.222C2.52414 16.9445 9.34777 18.9183 15.7281 18.9183C22.5264 18.9183 25.5604 16.6981 25.5604 14.747C25.5604 14.0497 25.2891 13.6426 24.595 12.8534C24.1444 12.34 23.7183 11.922 23.2672 11.5105C23.2454 11.4925 23.2302 11.5071 23.2454 11.5291ZM21.1613 9.9739C19.0631 8.71577 16.6267 8 14 8C11.355 8 8.8452 8.74077 6.73954 10.0322C6.10795 10.4211 5.75245 10.7327 5.75245 11.1333C5.75245 12.3142 8.51109 13.5839 13.4053 13.5839C18.2487 13.5839 22.0053 12.1932 22.0053 10.8544C22.0053 10.5349 21.7261 10.3113 21.1613 9.9739Z" fill="#00A8E0"/>
<path d="M40.6641 34.5H36.8203L45.457 10.5H49.6406L58.2773 34.5H54.4336L47.6484 14.8594H47.4609L40.6641 34.5ZM41.3086 25.1016H53.7773V28.1484H41.3086V25.1016ZM57.7236 13.6172V10.5H76.2979V13.6172H68.8096V34.5H65.2002V13.6172H57.7236ZM85.9775 34.8398C84.3682 34.8398 82.9814 34.5469 81.8174 33.9609C80.6611 33.375 79.7705 32.5781 79.1455 31.5703C78.5205 30.5547 78.208 29.4062 78.208 28.125C78.208 27.1484 78.4111 26.2812 78.8174 25.5234C79.2236 24.7578 79.79 24.0508 80.5166 23.4023C81.2432 22.7539 82.083 22.1016 83.0361 21.4453L86.9033 18.7148C87.5596 18.2852 88.0713 17.832 88.4385 17.3555C88.8057 16.8711 88.9893 16.2734 88.9893 15.5625C88.9893 15 88.7471 14.4609 88.2627 13.9453C87.7783 13.4297 87.1299 13.1719 86.3174 13.1719C85.7549 13.1719 85.2588 13.3086 84.8291 13.582C84.4072 13.8555 84.0752 14.207 83.833 14.6367C83.5986 15.0586 83.4814 15.5039 83.4814 15.9727C83.4814 16.5195 83.6299 17.0703 83.9268 17.625C84.2314 18.1797 84.6221 18.7539 85.0986 19.3477C85.5752 19.9336 86.0752 20.543 86.5986 21.1758L97.7432 34.5H93.7822L84.5596 23.6602C83.7861 22.7461 83.0674 21.8867 82.4033 21.082C81.7393 20.2695 81.2002 19.4492 80.7861 18.6211C80.3799 17.7852 80.1768 16.8828 80.1768 15.9141C80.1768 14.8125 80.4268 13.8359 80.9268 12.9844C81.4346 12.125 82.1416 11.4531 83.0479 10.9687C83.9541 10.4844 85.0166 10.2422 86.2354 10.2422C87.4697 10.2422 88.5283 10.4844 89.4111 10.9687C90.3018 11.4453 90.9854 12.082 91.4619 12.8789C91.9463 13.668 92.1885 14.5312 92.1885 15.4687C92.1885 16.6094 91.9033 17.6172 91.333 18.4922C90.7705 19.3594 89.9932 20.1562 89.001 20.8828L84.1846 24.4336C83.2471 25.1211 82.5947 25.8008 82.2275 26.4727C81.8682 27.1367 81.6885 27.6562 81.6885 28.0312C81.6885 28.7187 81.8643 29.3555 82.2158 29.9414C82.5752 30.5273 83.0752 30.9961 83.7158 31.3477C84.3643 31.6992 85.1221 31.875 85.9893 31.875C86.8799 31.875 87.7471 31.6836 88.5908 31.3008C89.4424 30.9102 90.2119 30.3516 90.8994 29.625C91.5947 28.8984 92.1455 28.0273 92.5518 27.0117C92.958 25.9961 93.1611 24.8594 93.1611 23.6016H96.3252C96.3252 25.1484 96.1494 26.457 95.7979 27.5273C95.4463 28.5898 95.0205 29.457 94.5205 30.1289C94.0283 30.793 93.5635 31.3125 93.126 31.6875C92.9854 31.8125 92.8525 31.9375 92.7275 32.0625C92.6025 32.1875 92.4697 32.3125 92.3291 32.4375C91.5166 33.2578 90.5322 33.8633 89.376 34.2539C88.2275 34.6445 87.0947 34.8398 85.9775 34.8398ZM97.7168 13.6172V10.5H116.291V13.6172H108.803V34.5H105.193V13.6172H97.7168Z" fill="white"/>
</svg>
