<svg width="28" height="28" viewBox="0 0 28 28" fill="none" xmlns="http://www.w3.org/2000/svg">
<path d="M5.41493 25.0575C7.78846 26.8956 10.7676 28 13.9999 28C17.5371 28 20.7617 26.6862 23.2227 24.5296C23.2525 24.5033 23.2378 24.4858 23.2084 24.5033C22.1041 25.2411 18.9566 26.8518 14 26.8518C9.69257 26.8518 6.97043 25.8903 5.43318 25.0319C5.40377 25.0174 5.39287 25.0394 5.41493 25.0575ZM14.9502 25.7732C18.3954 25.7732 22.1812 24.8336 24.4455 22.9738C25.0651 22.4671 25.6553 21.7927 26.1839 20.8863C26.4881 20.3648 26.7858 19.7452 27.0282 19.1362C27.0389 19.1065 27.0206 19.0921 26.9983 19.1254C24.8927 22.2253 18.7954 24.1588 12.4996 24.1588C8.04944 24.1588 3.2612 22.7352 1.38657 20.0168C1.36812 19.9917 1.34966 20.0024 1.3609 20.0313C3.10725 23.7447 8.40528 25.7732 14.9502 25.7732ZM11.186 19.6129C4.02074 19.6129 0.64215 16.2744 0.0292784 13.9961C0.0217205 13.9631 0 13.9703 0 14C0 14.767 0.0767366 15.7568 0.208762 16.4138C0.271744 16.7336 0.531913 17.2355 0.913349 17.6355C2.6484 19.4448 6.97411 21.9799 14.4656 21.9799C24.6723 21.9799 27.0061 18.5786 27.4827 17.46C27.8234 16.6601 28 15.2144 28 14C28 13.7062 27.9926 13.4714 27.9815 13.241C27.9815 13.2036 27.9599 13.2005 27.9524 13.237C27.4423 15.974 18.7218 19.6129 11.186 19.6129ZM1.34966 7.99395C0.939087 8.8091 0.483978 10.1843 0.348685 10.8961C0.289379 11.201 0.31464 11.3475 0.421541 11.5751C1.28035 13.3979 5.62438 16.3146 15.7573 16.3146C21.9391 16.3146 26.7413 14.7952 27.5193 12.0227C27.6626 11.5123 27.6702 10.9734 27.4862 10.2473C27.2806 9.43585 26.8955 8.48963 26.5695 7.82522C26.5588 7.80356 26.5398 7.80676 26.5436 7.83237C26.6647 11.4689 16.5278 13.8126 11.4131 13.8126C5.87304 13.8126 1.25107 11.6044 1.25107 8.81605C1.25107 8.54815 1.3065 8.28018 1.37568 8.0013C1.38262 7.97583 1.36083 7.97161 1.34966 7.99395ZM23.2454 3.52908C23.3042 3.62131 23.3336 3.71974 23.3336 3.85223C23.3336 5.40775 18.5747 8.15954 10.9993 8.15954C5.43318 8.15954 4.39108 6.09382 4.39108 4.78012C4.39108 4.31052 4.5711 3.83002 4.96759 3.34203C4.98924 3.31301 4.97086 3.30184 4.94587 3.32343C4.22276 3.93649 3.55834 4.62631 2.9755 5.37096C2.69702 5.72313 2.52414 6.0351 2.52414 6.22202C2.52414 8.94445 9.34777 10.9183 15.7281 10.9183C22.5264 10.9183 25.5604 8.69814 25.5604 6.747C25.5604 6.04968 25.2891 5.64261 24.595 4.85341C24.1444 4.34001 23.7183 3.92198 23.2672 3.51048C23.2454 3.4925 23.2302 3.50714 23.2454 3.52908ZM21.1613 1.9739C19.0631 0.715774 16.6267 0 14 0C11.355 0 8.8452 0.740773 6.73954 2.0322C6.10795 2.42109 5.75245 2.73272 5.75245 3.13332C5.75245 4.3142 8.51109 5.5839 13.4053 5.5839C18.2487 5.5839 22.0053 4.19315 22.0053 2.85445C22.0053 2.53491 21.7261 2.31135 21.1613 1.9739Z" fill="#00A8E0"/>
</svg>
